<svg width="63" height="32" viewBox="0 0 63 32" fill="none" xmlns="http://www.w3.org/2000/svg">
<g filter="url(#filter0_d_215_5)">
<path d="M4.11364 18V0.545454H14.5795V2.42045H6.22727V8.31818H13.7955V10.1932H6.22727V18H4.11364ZM18.5724 18.1364C18.152 18.1364 17.7912 17.9858 17.4901 17.6847C17.1889 17.3835 17.0384 17.0227 17.0384 16.6023C17.0384 16.1818 17.1889 15.821 17.4901 15.5199C17.7912 15.2187 18.152 15.0682 18.5724 15.0682C18.9929 15.0682 19.3537 15.2187 19.6548 15.5199C19.956 15.821 20.1065 16.1818 20.1065 16.6023C20.1065 16.8807 20.0355 17.1364 19.8935 17.3693C19.7571 17.6023 19.5724 17.7898 19.3395 17.9318C19.1122 18.0682 18.8565 18.1364 18.5724 18.1364ZM29 23.1818C28.0284 23.1818 27.1932 23.0568 26.4943 22.8068C25.7955 22.5625 25.2131 22.2386 24.7472 21.8352C24.2869 21.4375 23.9205 21.0114 23.6477 20.5568L25.25 19.4318C25.4318 19.6705 25.6619 19.9432 25.9403 20.25C26.2188 20.5625 26.5994 20.8324 27.0824 21.0597C27.571 21.2926 28.2102 21.4091 29 21.4091C30.0568 21.4091 30.929 21.1534 31.6165 20.642C32.304 20.1307 32.6477 19.3295 32.6477 18.2386V15.5795H32.4773C32.3295 15.8182 32.1193 16.1136 31.8466 16.4659C31.5795 16.8125 31.1932 17.1222 30.6875 17.3949C30.1875 17.6619 29.5114 17.7955 28.6591 17.7955C27.6023 17.7955 26.6534 17.5455 25.8125 17.0455C24.9773 16.5455 24.3153 15.8182 23.8267 14.8636C23.3438 13.9091 23.1023 12.75 23.1023 11.3864C23.1023 10.0455 23.3381 8.87784 23.8097 7.88352C24.2813 6.88352 24.9375 6.1108 25.7784 5.56534C26.6193 5.0142 27.5909 4.73864 28.6932 4.73864C29.5455 4.73864 30.2216 4.88068 30.7216 5.16477C31.2273 5.44318 31.6136 5.76136 31.8807 6.11932C32.1534 6.47159 32.3636 6.76136 32.5114 6.98864H32.7159V4.90909H34.6591V18.375C34.6591 19.5 34.4034 20.4148 33.892 21.1193C33.3864 21.8295 32.7045 22.3494 31.8466 22.679C30.9943 23.0142 30.0455 23.1818 29 23.1818ZM28.9318 15.9886C29.7386 15.9886 30.4205 15.804 30.9773 15.4347C31.5341 15.0653 31.9574 14.5341 32.2472 13.8409C32.5369 13.1477 32.6818 12.3182 32.6818 11.3523C32.6818 10.4091 32.5398 9.5767 32.2557 8.85511C31.9716 8.13352 31.5511 7.56818 30.9943 7.15909C30.4375 6.75 29.75 6.54545 28.9318 6.54545C28.0795 6.54545 27.3693 6.76136 26.8011 7.19318C26.2386 7.625 25.8153 8.20455 25.5312 8.93182C25.2528 9.65909 25.1136 10.4659 25.1136 11.3523C25.1136 12.2614 25.2557 13.0653 25.5398 13.7642C25.8295 14.4574 26.2557 15.0028 26.8182 15.4006C27.3864 15.7926 28.0909 15.9886 28.9318 15.9886ZM43.8295 18.2727C42.5682 18.2727 41.4801 17.9943 40.5653 17.4375C39.6562 16.875 38.9545 16.0909 38.4602 15.0852C37.9716 14.0739 37.7273 12.8977 37.7273 11.5568C37.7273 10.2159 37.9716 9.03409 38.4602 8.01136C38.9545 6.98295 39.642 6.18182 40.5227 5.60795C41.4091 5.02841 42.4432 4.73864 43.625 4.73864C44.3068 4.73864 44.9801 4.85227 45.6449 5.07954C46.3097 5.30682 46.9148 5.67614 47.4602 6.1875C48.0057 6.69318 48.4403 7.36364 48.7642 8.19886C49.0881 9.03409 49.25 10.0625 49.25 11.2841V12.1364H39.1591V10.3977H47.2045C47.2045 9.65909 47.0568 9 46.7614 8.42045C46.4716 7.84091 46.0568 7.38352 45.517 7.0483C44.983 6.71307 44.3523 6.54545 43.625 6.54545C42.8239 6.54545 42.1307 6.74432 41.5455 7.14205C40.9659 7.53409 40.5199 8.04545 40.2074 8.67614C39.8949 9.30682 39.7386 9.98295 39.7386 10.7045V11.8636C39.7386 12.8523 39.9091 13.6903 40.25 14.3778C40.5966 15.0597 41.0767 15.5795 41.6903 15.9375C42.304 16.2898 43.017 16.4659 43.8295 16.4659C44.358 16.4659 44.8352 16.392 45.2614 16.2443C45.6932 16.0909 46.0653 15.8636 46.3778 15.5625C46.6903 15.2557 46.9318 14.875 47.1023 14.4205L49.0455 14.9659C48.8409 15.625 48.4972 16.2045 48.0142 16.7045C47.5313 17.1989 46.9347 17.5852 46.2244 17.8636C45.5142 18.1364 44.7159 18.2727 43.8295 18.2727ZM58.0028 4.90909V6.61364H51.2188V4.90909H58.0028ZM53.196 1.77273H55.2074V14.25C55.2074 14.8182 55.2898 15.2443 55.4545 15.5284C55.625 15.8068 55.8409 15.9943 56.1023 16.0909C56.3693 16.1818 56.6506 16.2273 56.946 16.2273C57.1676 16.2273 57.3494 16.2159 57.4915 16.1932C57.6335 16.1648 57.7472 16.142 57.8324 16.125L58.2415 17.9318C58.1051 17.983 57.9148 18.0341 57.6705 18.0852C57.4261 18.142 57.1165 18.1705 56.7415 18.1705C56.1733 18.1705 55.6165 18.0483 55.071 17.804C54.5313 17.5597 54.0824 17.1875 53.7244 16.6875C53.3722 16.1875 53.196 15.5568 53.196 14.7955V1.77273Z" fill="black"/>
<path d="M4.11364 18H3.11364V19H4.11364V18ZM4.11364 0.545454V-0.454546H3.11364V0.545454H4.11364ZM14.5795 0.545454H15.5795V-0.454546H14.5795V0.545454ZM14.5795 2.42045V3.42045H15.5795V2.42045H14.5795ZM6.22727 2.42045V1.42045H5.22727V2.42045H6.22727ZM6.22727 8.31818H5.22727V9.31818H6.22727V8.31818ZM13.7955 8.31818H14.7955V7.31818H13.7955V8.31818ZM13.7955 10.1932V11.1932H14.7955V10.1932H13.7955ZM6.22727 10.1932V9.19318H5.22727V10.1932H6.22727ZM6.22727 18V19H7.22727V18H6.22727ZM5.11364 18V0.545454H3.11364V18H5.11364ZM4.11364 1.54545H14.5795V-0.454546H4.11364V1.54545ZM13.5795 0.545454V2.42045H15.5795V0.545454H13.5795ZM14.5795 1.42045H6.22727V3.42045H14.5795V1.42045ZM5.22727 2.42045V8.31818H7.22727V2.42045H5.22727ZM6.22727 9.31818H13.7955V7.31818H6.22727V9.31818ZM12.7955 8.31818V10.1932H14.7955V8.31818H12.7955ZM13.7955 9.19318H6.22727V11.1932H13.7955V9.19318ZM5.22727 10.1932V18H7.22727V10.1932H5.22727ZM6.22727 17H4.11364V19H6.22727V17ZM17.4901 17.6847L18.1972 16.9776L18.1972 16.9776L17.4901 17.6847ZM19.6548 15.5199L20.3619 14.8128L20.3619 14.8128L19.6548 15.5199ZM19.8935 17.3693L19.0397 16.8487L19.035 16.8564L19.0305 16.8641L19.8935 17.3693ZM19.3395 17.9318L19.854 18.7893L19.8601 18.7856L19.3395 17.9318ZM18.5724 17.1364C18.421 17.1364 18.3135 17.0939 18.1972 16.9776L16.783 18.3918C17.2689 18.8777 17.883 19.1364 18.5724 19.1364V17.1364ZM18.1972 16.9776C18.0808 16.8612 18.0384 16.7537 18.0384 16.6023H16.0384C16.0384 17.2918 16.297 17.9058 16.783 18.3918L18.1972 16.9776ZM18.0384 16.6023C18.0384 16.4508 18.0808 16.3433 18.1972 16.227L16.783 14.8128C16.297 15.2987 16.0384 15.9128 16.0384 16.6023H18.0384ZM18.1972 16.227C18.3135 16.1107 18.421 16.0682 18.5724 16.0682V14.0682C17.883 14.0682 17.2689 14.3268 16.783 14.8128L18.1972 16.227ZM18.5724 16.0682C18.7239 16.0682 18.8314 16.1107 18.9477 16.227L20.3619 14.8128C19.876 14.3268 19.2619 14.0682 18.5724 14.0682V16.0682ZM18.9477 16.227C19.064 16.3433 19.1065 16.4508 19.1065 16.6023H21.1065C21.1065 15.9128 20.8479 15.2987 20.3619 14.8128L18.9477 16.227ZM19.1065 16.6023C19.1065 16.701 19.0841 16.7759 19.0397 16.8487L20.7473 17.8899C20.987 17.4968 21.1065 17.0604 21.1065 16.6023H19.1065ZM19.0305 16.8641C18.9786 16.9528 18.9122 17.0211 18.8189 17.078L19.8601 18.7856C20.2327 18.5584 20.5356 18.2518 20.7565 17.8745L19.0305 16.8641ZM18.825 17.0743C18.7643 17.1107 18.6888 17.1364 18.5724 17.1364V19.1364C19.0243 19.1364 19.4601 19.0256 19.854 18.7893L18.825 17.0743ZM26.4943 22.8068L26.8311 21.8652L26.8243 21.8628L26.4943 22.8068ZM24.7472 21.8352L25.4017 21.0792L25.401 21.0786L24.7472 21.8352ZM23.6477 20.5568L23.0731 19.7384L22.3114 20.2732L22.7902 21.0713L23.6477 20.5568ZM25.25 19.4318L26.0454 18.8258L25.4625 18.0607L24.6754 18.6134L25.25 19.4318ZM25.9403 20.25L26.687 19.5848L26.6809 19.578L25.9403 20.25ZM27.0824 21.0597L27.5127 20.157L27.5082 20.1548L27.0824 21.0597ZM31.6165 20.642L32.2133 21.4444L32.2133 21.4444L31.6165 20.642ZM32.6477 15.5795H33.6477V14.5795H32.6477V15.5795ZM32.4773 15.5795V14.5795H31.9202L31.627 15.0532L32.4773 15.5795ZM31.8466 16.4659L31.0559 15.8537L31.0545 15.8556L31.8466 16.4659ZM30.6875 17.3949L31.1586 18.277L31.1622 18.275L30.6875 17.3949ZM25.8125 17.0455L25.2989 17.9035L25.3014 17.905L25.8125 17.0455ZM23.8267 14.8636L22.9344 15.3151L22.9366 15.3193L23.8267 14.8636ZM23.8097 7.88352L24.7132 8.31205L24.7141 8.31006L23.8097 7.88352ZM25.7784 5.56534L26.3226 6.40431L26.3266 6.40171L25.7784 5.56534ZM30.7216 5.16477L30.2275 6.03431L30.2393 6.04078L30.7216 5.16477ZM31.8807 6.11932L31.0792 6.71728L31.0845 6.72443L31.09 6.73149L31.8807 6.11932ZM32.5114 6.98864L31.6729 7.53363L31.9687 7.98864H32.5114V6.98864ZM32.7159 6.98864V7.98864H33.7159V6.98864H32.7159ZM32.7159 4.90909V3.90909H31.7159V4.90909H32.7159ZM34.6591 4.90909H35.6591V3.90909H34.6591V4.90909ZM33.892 21.1193L33.0827 20.5319L33.0774 20.5393L33.892 21.1193ZM31.8466 22.679L31.488 21.7454L31.4806 21.7484L31.8466 22.679ZM30.9773 15.4347L30.4245 14.6013L30.4245 14.6013L30.9773 15.4347ZM32.2472 13.8409L33.1698 14.2266L33.1698 14.2266L32.2472 13.8409ZM32.2557 8.85511L33.1862 8.48878L33.1862 8.48878L32.2557 8.85511ZM30.9943 7.15909L30.4022 7.96497L30.4022 7.96497L30.9943 7.15909ZM26.8011 7.19318L26.196 6.39701L26.1922 6.39996L26.8011 7.19318ZM25.5312 8.93182L24.5998 8.56796L24.5973 8.57431L25.5312 8.93182ZM25.5398 13.7642L24.6133 14.1408L24.6171 14.1499L25.5398 13.7642ZM26.8182 15.4006L26.2408 16.2171L26.2503 16.2236L26.8182 15.4006ZM29 22.1818C28.1097 22.1818 27.3943 22.0667 26.8311 21.8652L26.1575 23.7484C26.992 24.0469 27.9471 24.1818 29 24.1818V22.1818ZM26.8243 21.8628C26.2212 21.652 25.7552 21.3853 25.4017 21.0792L24.0926 22.5912C24.6709 23.092 25.3698 23.473 26.1643 23.7508L26.8243 21.8628ZM25.401 21.0786C25.0095 20.7402 24.716 20.3936 24.5052 20.0423L22.7902 21.0713C23.1249 21.6292 23.5644 22.1348 24.0933 22.5918L25.401 21.0786ZM24.2224 21.3752L25.8246 20.2502L24.6754 18.6134L23.0731 19.7384L24.2224 21.3752ZM24.4546 20.0379C24.6588 20.306 24.9088 20.6013 25.1998 20.922L26.6809 19.578C26.4151 19.285 26.2048 19.0349 26.0454 18.8258L24.4546 20.0379ZM25.1937 20.9152C25.5828 21.352 26.0839 21.695 26.6566 21.9645L27.5082 20.1548C27.115 19.9698 26.8547 19.773 26.687 19.5848L25.1937 20.9152ZM26.652 21.9623C27.3223 22.2819 28.1244 22.4091 29 22.4091V20.4091C28.2961 20.4091 27.8198 20.3034 27.5127 20.157L26.652 21.9623ZM29 22.4091C30.2207 22.4091 31.3163 22.1116 32.2133 21.4444L31.0197 19.8397C30.5416 20.1952 29.8929 20.4091 29 20.4091V22.4091ZM32.2133 21.4444C33.2223 20.6939 33.6477 19.5504 33.6477 18.2386H31.6477C31.6477 19.1087 31.3856 19.5674 31.0197 19.8397L32.2133 21.4444ZM33.6477 18.2386V15.5795H31.6477V18.2386H33.6477ZM32.6477 14.5795H32.4773V16.5795H32.6477V14.5795ZM31.627 15.0532C31.505 15.2503 31.3181 15.5151 31.0559 15.8537L32.6373 17.0781C32.9206 16.7122 33.1541 16.3861 33.3275 16.1059L31.627 15.0532ZM31.0545 15.8556C30.8955 16.0619 30.6318 16.2887 30.2128 16.5147L31.1622 18.275C31.7545 17.9556 32.2636 17.5631 32.6387 17.0762L31.0545 15.8556ZM30.2164 16.5128C29.9162 16.6731 29.4231 16.7955 28.6591 16.7955V18.7955C29.5996 18.7955 30.4588 18.6507 31.1586 18.277L30.2164 16.5128ZM28.6591 16.7955C27.7672 16.7955 26.9975 16.5866 26.3236 16.1859L25.3014 17.905C26.3093 18.5043 27.4373 18.7955 28.6591 18.7955V16.7955ZM26.3261 16.1874C25.6677 15.7933 25.1291 15.2133 24.7169 14.408L22.9366 15.3193C23.5016 16.4231 24.2868 17.2976 25.2989 17.9035L26.3261 16.1874ZM24.719 14.4122C24.3236 13.6307 24.1023 12.635 24.1023 11.3864H22.1023C22.1023 12.865 22.3639 14.1875 22.9344 15.3151L24.719 14.4122ZM24.1023 11.3864C24.1023 10.1619 24.3175 9.14642 24.7132 8.31205L22.9061 7.45499C22.3587 8.60926 22.1023 9.92901 22.1023 11.3864H24.1023ZM24.7141 8.31006C25.1148 7.46046 25.6536 6.83822 26.3226 6.4043L25.2342 4.72638C24.2214 5.38337 23.4477 6.30658 22.9052 7.45698L24.7141 8.31006ZM26.3266 6.40171C26.989 5.96756 27.7661 5.73864 28.6932 5.73864V3.73864C27.4157 3.73864 26.2496 4.06085 25.2302 4.72897L26.3266 6.40171ZM28.6932 5.73864C29.4498 5.73864 29.9337 5.86723 30.2276 6.03423L31.2156 4.29532C30.5095 3.89414 29.6411 3.73864 28.6932 3.73864V5.73864ZM30.2393 6.04078C30.6551 6.26969 30.9186 6.50201 31.0792 6.71728L32.6822 5.52135C32.3087 5.02071 31.7995 4.61667 31.2039 4.28876L30.2393 6.04078ZM31.09 6.73149C31.3551 7.07392 31.5466 7.33926 31.6729 7.53363L33.3498 6.44365C33.1807 6.18347 32.9518 5.86927 32.6714 5.50714L31.09 6.73149ZM32.5114 7.98864H32.7159V5.98864H32.5114V7.98864ZM33.7159 6.98864V4.90909H31.7159V6.98864H33.7159ZM32.7159 5.90909H34.6591V3.90909H32.7159V5.90909ZM33.6591 4.90909V18.375H35.6591V4.90909H33.6591ZM33.6591 18.375C33.6591 19.3507 33.4383 20.0421 33.0827 20.5319L34.7013 21.7067C35.3685 20.7875 35.6591 19.6493 35.6591 18.375H33.6591ZM33.0774 20.5393C32.6921 21.0806 32.173 21.4824 31.488 21.7455L32.2052 23.6125C33.2361 23.2165 34.0807 22.5785 34.7067 21.6993L33.0774 20.5393ZM31.4806 21.7484C30.7602 22.0317 29.9377 22.1818 29 22.1818V24.1818C30.1532 24.1818 31.2285 23.9967 32.2126 23.6096L31.4806 21.7484ZM28.9318 16.9886C29.894 16.9886 30.778 16.7668 31.53 16.268L30.4245 14.6013C30.0629 14.8412 29.5833 14.9886 28.9318 14.9886V16.9886ZM31.53 16.268C32.2717 15.7761 32.8135 15.0788 33.1698 14.2266L31.3245 13.4552C31.1012 13.9894 30.7965 14.3546 30.4245 14.6013L31.53 16.268ZM33.1698 14.2266C33.523 13.3818 33.6818 12.4144 33.6818 11.3523H31.6818C31.6818 12.222 31.5509 12.9137 31.3245 13.4552L33.1698 14.2266ZM33.6818 11.3523C33.6818 10.31 33.5249 9.34928 33.1862 8.48878L31.3252 9.22145C31.5546 9.80413 31.6818 10.5081 31.6818 11.3523H33.6818ZM33.1862 8.48878C32.8417 7.6138 32.3133 6.88725 31.5864 6.35321L30.4022 7.96497C30.789 8.24911 31.1015 8.65324 31.3252 9.22145L33.1862 8.48878ZM31.5864 6.35321C30.828 5.79602 29.9226 5.54545 28.9318 5.54545V7.54545C29.5774 7.54545 30.047 7.70398 30.4022 7.96497L31.5864 6.35321ZM28.9318 5.54545C27.9048 5.54545 26.9701 5.80871 26.1961 6.39702L27.4062 7.98934C27.7685 7.71402 28.2543 7.54545 28.9318 7.54545V5.54545ZM26.1922 6.39996C25.4707 6.95385 24.9433 7.68854 24.5998 8.56797L26.4627 9.29567C26.6874 8.72055 27.0066 8.29615 27.4101 7.9864L26.1922 6.39996ZM24.5973 8.57431C24.2696 9.43035 24.1136 10.3604 24.1136 11.3523H26.1136C26.1136 10.5714 26.236 9.88783 26.4652 9.28933L24.5973 8.57431ZM24.1136 11.3523C24.1136 12.3646 24.2718 13.3005 24.6134 14.1408L26.4662 13.3876C26.2395 12.8302 26.1136 12.1581 26.1136 11.3523H24.1136ZM24.6171 14.1499C24.9725 15 25.5113 15.7012 26.2409 16.2171L27.3955 14.5841C27.0001 14.3044 26.6866 13.9148 26.4624 13.3785L24.6171 14.1499ZM26.2503 16.2236C27.0189 16.754 27.9329 16.9886 28.9318 16.9886V14.9886C28.2489 14.9886 27.7538 14.8312 27.3861 14.5775L26.2503 16.2236ZM40.5653 17.4375L40.0392 18.2879L40.0454 18.2917L40.5653 17.4375ZM38.4602 15.0852L37.5598 15.5203L37.5628 15.5263L38.4602 15.0852ZM38.4602 8.01136L37.5589 7.57815L37.5579 7.58026L38.4602 8.01136ZM40.5227 5.60795L41.0687 6.44578L41.07 6.44492L40.5227 5.60795ZM45.6449 5.07954L45.9684 4.13332L45.9684 4.13332L45.6449 5.07954ZM47.4602 6.1875L46.7763 6.91705L46.7804 6.92084L47.4602 6.1875ZM48.7642 8.19886L49.6966 7.83734L49.6966 7.83734L48.7642 8.19886ZM49.25 12.1364V13.1364H50.25V12.1364H49.25ZM39.1591 12.1364H38.1591V13.1364H39.1591V12.1364ZM39.1591 10.3977V9.39773H38.1591V10.3977H39.1591ZM47.2045 10.3977V11.3977H48.2045V10.3977H47.2045ZM46.7614 8.42045L45.8669 8.86768L45.8705 8.87464L46.7614 8.42045ZM45.517 7.0483L44.9854 7.89529L44.9895 7.8978L45.517 7.0483ZM41.5455 7.14205L42.1058 7.97033L42.1075 7.96912L41.5455 7.14205ZM40.2074 8.67614L39.3114 8.23215L39.3114 8.23215L40.2074 8.67614ZM40.25 14.3778L39.3541 14.8221L39.3586 14.831L40.25 14.3778ZM41.6903 15.9375L41.1865 16.8013L41.1925 16.8048L41.6903 15.9375ZM45.2614 16.2443L45.5889 17.1892L45.5961 17.1866L45.2614 16.2443ZM46.3778 15.5625L47.0718 16.2826L47.0784 16.2761L46.3778 15.5625ZM47.1023 14.4205L47.3725 13.4577L46.4884 13.2095L46.1659 14.0693L47.1023 14.4205ZM49.0455 14.9659L50.0005 15.2623L50.3051 14.2808L49.3157 14.0031L49.0455 14.9659ZM48.0142 16.7045L48.7295 17.4034L48.7335 17.3993L48.0142 16.7045ZM46.2244 17.8636L46.5829 18.7972L46.5894 18.7947L46.2244 17.8636ZM43.8295 17.2727C42.7186 17.2727 41.8174 17.0289 41.0853 16.5833L40.0454 18.2917C41.1428 18.9597 42.4178 19.2727 43.8295 19.2727V17.2727ZM41.0915 16.5871C40.3501 16.1283 39.7733 15.4897 39.3577 14.6441L37.5628 15.5263C38.1358 16.6921 38.9624 17.6217 40.0392 18.2879L41.0915 16.5871ZM39.3606 14.6502C38.949 13.7983 38.7273 12.7759 38.7273 11.5568H36.7273C36.7273 13.0195 36.9941 14.3494 37.5598 15.5203L39.3606 14.6502ZM38.7273 11.5568C38.7273 10.338 38.9489 9.30813 39.3625 8.44246L37.5579 7.58026C36.9942 8.76005 36.7273 10.0938 36.7273 11.5568H38.7273ZM39.3615 8.44458C39.7836 7.5664 40.3542 6.91132 41.0687 6.44578L39.9768 4.77013C38.9299 5.45232 38.1255 6.39951 37.5589 7.57815L39.3615 8.44458ZM41.07 6.44492C41.7752 5.98384 42.6142 5.73864 43.625 5.73864V3.73864C42.2721 3.73864 41.043 4.07297 39.9755 4.77098L41.07 6.44492ZM43.625 5.73864C44.1934 5.73864 44.7575 5.83301 45.3214 6.02577L45.9684 4.13332C45.2027 3.87154 44.4202 3.73864 43.625 3.73864V5.73864ZM45.3214 6.02577C45.8435 6.20428 46.3275 6.4963 46.7763 6.91704L48.1442 5.45796C47.502 4.85597 46.7758 4.40936 45.9684 4.13332L45.3214 6.02577ZM46.7804 6.92084C47.1941 7.30438 47.5518 7.83812 47.8318 8.56039L49.6966 7.83734C49.3289 6.88916 48.8173 6.08198 48.1401 5.45416L46.7804 6.92084ZM47.8318 8.56039C48.098 9.24674 48.25 10.1441 48.25 11.2841H50.25C50.25 9.98088 50.0782 8.82144 49.6966 7.83734L47.8318 8.56039ZM48.25 11.2841V12.1364H50.25V11.2841H48.25ZM49.25 11.1364H39.1591V13.1364H49.25V11.1364ZM40.1591 12.1364V10.3977H38.1591V12.1364H40.1591ZM39.1591 11.3977H47.2045V9.39773H39.1591V11.3977ZM48.2045 10.3977C48.2045 9.52276 48.0286 8.7045 47.6523 7.96627L45.8705 8.87464C46.085 9.2955 46.2045 9.79542 46.2045 10.3977H48.2045ZM47.6558 7.97324C47.285 7.2317 46.7448 6.63362 46.0446 6.19879L44.9895 7.8978C45.3689 8.13342 45.6582 8.45012 45.8669 8.86767L47.6558 7.97324ZM46.0487 6.20131C45.3321 5.75153 44.5109 5.54545 43.625 5.54545V7.54545C44.1936 7.54545 44.6339 7.67461 44.9854 7.89528L46.0487 6.20131ZM43.625 5.54545C42.6508 5.54545 41.7557 5.79007 40.9834 6.31497L42.1075 7.96912C42.5057 7.69856 42.9969 7.54545 43.625 7.54545V5.54545ZM40.9851 6.31376C40.2614 6.80332 39.7002 7.44746 39.3114 8.23215L41.1034 9.12012C41.3396 8.64345 41.6704 8.26486 42.1058 7.97033L40.9851 6.31376ZM39.3114 8.23215C38.9287 9.0044 38.7386 9.83294 38.7386 10.7045H40.7386C40.7386 10.133 40.8611 9.60923 41.1034 9.12012L39.3114 8.23215ZM38.7386 10.7045V11.8636H40.7386V10.7045H38.7386ZM38.7386 11.8636C38.7386 12.9634 38.9279 13.9626 39.3541 14.8221L41.1459 13.9336C40.8903 13.4181 40.7386 12.7411 40.7386 11.8636H38.7386ZM39.3586 14.831C39.7852 15.6704 40.3941 16.3391 41.1865 16.8013L42.1942 15.0737C41.7593 14.82 41.4079 14.449 41.1414 13.9247L39.3586 14.831ZM41.1925 16.8048C41.9789 17.2562 42.8686 17.4659 43.8295 17.4659V15.4659C43.1655 15.4659 42.6291 15.3233 42.1882 15.0702L41.1925 16.8048ZM43.8295 17.4659C44.4507 17.4659 45.0411 17.3791 45.5889 17.1892L44.9338 15.2995C44.6294 15.405 44.2652 15.4659 43.8295 15.4659V17.4659ZM45.5961 17.1866C46.1545 16.9883 46.651 16.688 47.0717 16.2826L45.6839 14.8424C45.4797 15.0393 45.2319 15.1936 44.9266 15.302L45.5961 17.1866ZM47.0784 16.2761C47.5058 15.8564 47.8225 15.3477 48.0386 14.7716L46.1659 14.0693C46.0411 14.4023 45.8749 14.6549 45.6773 14.8489L47.0784 16.2761ZM46.832 15.3832L48.7752 15.9287L49.3157 14.0031L47.3725 13.4577L46.832 15.3832ZM48.0904 14.6695C47.9326 15.1781 47.6701 15.6215 47.2949 16.0098L48.7335 17.3993C49.3243 16.7876 49.7493 16.0719 50.0005 15.2623L48.0904 14.6695ZM47.2989 16.0057C46.9248 16.3886 46.4516 16.7005 45.8595 16.9326L46.5894 18.7947C47.4177 18.47 48.1377 18.0091 48.7295 17.4034L47.2989 16.0057ZM45.866 16.9301C45.2873 17.1523 44.6132 17.2727 43.8295 17.2727V19.2727C44.8186 19.2727 45.7411 19.1204 46.5829 18.7972L45.866 16.9301ZM58.0028 4.90909H59.0028V3.90909H58.0028V4.90909ZM58.0028 6.61364V7.61364H59.0028V6.61364H58.0028ZM51.2188 6.61364H50.2188V7.61364H51.2188V6.61364ZM51.2188 4.90909V3.90909H50.2188V4.90909H51.2188ZM53.196 1.77273V0.772727H52.196V1.77273H53.196ZM55.2074 1.77273H56.2074V0.772727H55.2074V1.77273ZM55.4545 15.5284L54.5895 16.0301L54.5955 16.0404L54.6017 16.0506L55.4545 15.5284ZM56.1023 16.0909L55.7556 17.0289L55.7678 17.0334L55.78 17.0376L56.1023 16.0909ZM57.4915 16.1932L57.6495 17.1806L57.6686 17.1776L57.6876 17.1738L57.4915 16.1932ZM57.8324 16.125L58.8077 15.9042L58.5924 14.9532L57.6363 15.1444L57.8324 16.125ZM58.2415 17.9318L58.5926 18.8681L59.4094 18.5618L59.2168 17.711L58.2415 17.9318ZM57.6705 18.0852L57.4656 17.1064L57.4547 17.1087L57.4439 17.1112L57.6705 18.0852ZM55.071 17.804L54.6587 18.715L54.6622 18.7166L55.071 17.804ZM53.7244 16.6875L52.9069 17.2635L52.9113 17.2696L53.7244 16.6875ZM57.0028 4.90909V6.61364H59.0028V4.90909H57.0028ZM58.0028 5.61364H51.2188V7.61364H58.0028V5.61364ZM52.2188 6.61364V4.90909H50.2188V6.61364H52.2188ZM51.2188 5.90909H58.0028V3.90909H51.2188V5.90909ZM53.196 2.77273H55.2074V0.772727H53.196V2.77273ZM54.2074 1.77273V14.25H56.2074V1.77273H54.2074ZM54.2074 14.25C54.2074 14.8821 54.2933 15.5194 54.5895 16.0301L56.3196 15.0267C56.2863 14.9693 56.2074 14.7543 56.2074 14.25H54.2074ZM54.6017 16.0506C54.8684 16.4862 55.2488 16.8416 55.7556 17.0289L56.4489 15.1529C56.433 15.147 56.3816 15.1274 56.3074 15.0063L54.6017 16.0506ZM55.78 17.0376C56.1557 17.1654 56.5462 17.2273 56.946 17.2273V15.2273C56.755 15.2273 56.583 15.1982 56.4245 15.1443L55.78 17.0376ZM56.946 17.2273C57.1955 17.2273 57.4352 17.2149 57.6495 17.1806L57.3335 15.2057C57.2636 15.2169 57.1397 15.2273 56.946 15.2273V17.2273ZM57.6876 17.1738C57.8296 17.1454 57.9433 17.1226 58.0285 17.1056L57.6363 15.1444C57.551 15.1615 57.4374 15.1842 57.2954 15.2126L57.6876 17.1738ZM56.8571 16.3458L57.2662 18.1526L59.2168 17.711L58.8077 15.9042L56.8571 16.3458ZM57.8904 16.9955C57.8234 17.0206 57.6899 17.0595 57.4656 17.1064L57.8753 19.064C58.1396 19.0087 58.3868 18.9453 58.5926 18.8681L57.8904 16.9955ZM57.4439 17.1112C57.3007 17.1445 57.0738 17.1705 56.7415 17.1705V19.1705C57.1592 19.1705 57.5516 19.1396 57.897 19.0592L57.4439 17.1112ZM56.7415 17.1705C56.3215 17.1705 55.9035 17.0811 55.4798 16.8913L54.6622 18.7166C55.3295 19.0155 56.0251 19.1705 56.7415 19.1705V17.1705ZM55.4834 16.893C55.11 16.7239 54.7972 16.4681 54.5375 16.1054L52.9113 17.2696C53.3676 17.9069 53.9525 18.3954 54.6587 18.715L55.4834 16.893ZM54.5419 16.1115C54.3347 15.8175 54.196 15.4015 54.196 14.7955H52.196C52.196 15.7121 52.4096 16.5575 52.9069 17.2635L54.5419 16.1115ZM54.196 14.7955V1.77273H52.196V14.7955H54.196Z" fill="black"/>
</g>
<defs>
<filter id="filter0_d_215_5" x="0.113647" y="0.545441" width="62.1278" height="30.6364" filterUnits="userSpaceOnUse" color-interpolation-filters="sRGB">
<feFlood flood-opacity="0" result="BackgroundImageFix"/>
<feColorMatrix in="SourceAlpha" type="matrix" values="0 0 0 0 0 0 0 0 0 0 0 0 0 0 0 0 0 0 127 0" result="hardAlpha"/>
<feOffset dy="4"/>
<feGaussianBlur stdDeviation="2"/>
<feComposite in2="hardAlpha" operator="out"/>
<feColorMatrix type="matrix" values="0 0 0 0 0 0 0 0 0 0 0 0 0 0 0 0 0 0 0.25 0"/>
<feBlend mode="normal" in2="BackgroundImageFix" result="effect1_dropShadow_215_5"/>
<feBlend mode="normal" in="SourceGraphic" in2="effect1_dropShadow_215_5" result="shape"/>
</filter>
</defs>
</svg>
